<?xml version="1.0" encoding="UTF-8" standalone="no"?>
<svg
   xmlns:dc="http://purl.org/dc/elements/1.1/"
   xmlns:cc="http://creativecommons.org/ns#"
   xmlns:rdf="http://www.w3.org/1999/02/22-rdf-syntax-ns#"
   xmlns:svg="http://www.w3.org/2000/svg"
   xmlns="http://www.w3.org/2000/svg"
   viewBox="0 0 1122.52 793.70667"
   height="793.70667"
   width="1122.52"
   xml:space="preserve"
   id="svg2"
   version="1.1"><metadata
     id="metadata8"><rdf:RDF><cc:Work
         rdf:about=""><dc:format>image/svg+xml</dc:format><dc:type
           rdf:resource="http://purl.org/dc/dcmitype/StillImage" /></cc:Work></rdf:RDF></metadata><defs
     id="defs6"><clipPath
       id="clipPath18"
       clipPathUnits="userSpaceOnUse"><path
         id="path16"
         d="M 0,595.28 H 841.89 V 0 H 0 Z" /></clipPath><linearGradient
       id="linearGradient60"
       spreadMethod="pad"
       gradientTransform="matrix(61.324913,-53.277794,52.761898,61.92453,180.81842,360.20987)"
       gradientUnits="userSpaceOnUse"
       y2="0"
       x2="1"
       y1="0"
       x1="0"><stop
         id="stop56"
         offset="0"
         style="stop-opacity:1;stop-color:#5a9fd4" /><stop
         id="stop58"
         offset="1"
         style="stop-opacity:1;stop-color:#306998" /></linearGradient><linearGradient
       id="linearGradient80"
       spreadMethod="pad"
       gradientTransform="matrix(-21.897957,31.284729,-30.981796,-22.112072,265.85046,274.69138)"
       gradientUnits="userSpaceOnUse"
       y2="0"
       x2="1"
       y1="0"
       x1="0"><stop
         id="stop76"
         offset="0"
         style="stop-opacity:1;stop-color:#ffd43b" /><stop
         id="stop78"
         offset="1"
         style="stop-opacity:1;stop-color:#ffe873" /></linearGradient><clipPath
       id="clipPath90"
       clipPathUnits="userSpaceOnUse"><path
         id="path88"
         d="M 0,595.28 H 841.89 V 0 H 0 Z" /></clipPath><clipPath
       id="clipPath102"
       clipPathUnits="userSpaceOnUse"><path
         id="path100"
         d="m 203.43,242.673 h 71.862 V 228.739 H 203.43 Z" /></clipPath><clipPath
       id="clipPath106"
       clipPathUnits="userSpaceOnUse"><path
         id="path104"
         d="m 275.292,235.706 c 0,-3.848 -16.087,-6.967 -35.931,-6.967 -19.844,0 -35.931,3.119 -35.931,6.967 0,3.848 16.087,6.967 35.931,6.967 19.844,0 35.931,-3.119 35.931,-6.967" /></clipPath><radialGradient
       id="radialGradient116"
       spreadMethod="pad"
       gradientTransform="matrix(0,6.9660916,-30.625832,0,239.36084,235.7061)"
       gradientUnits="userSpaceOnUse"
       r="1"
       cy="0"
       cx="0"
       fy="0"
       fx="0"><stop
         id="stop112"
         offset="0"
         style="stop-opacity:0.49803922;stop-color:#ffffff" /><stop
         id="stop114"
         offset="1"
         style="stop-opacity:0;stop-color:#ffffff" /></radialGradient><mask
       id="mask118"
       height="1"
       width="1"
       y="0"
       x="0"
       maskUnits="userSpaceOnUse"><g
         id="g128"><g
           id="g126"><g
             id="g124"><g
               id="g122"><path
                 id="path120"
                 style="fill:url(#radialGradient116);stroke:none"
                 d="M -32768,32767 H 32767 V -32768 H -32768 Z" /></g></g></g></g></mask><radialGradient
       id="radialGradient134"
       spreadMethod="pad"
       gradientTransform="matrix(0,6.9660916,-30.625832,0,239.36084,235.7061)"
       gradientUnits="userSpaceOnUse"
       r="1"
       cy="0"
       cx="0"
       fy="0"
       fx="0"><stop
         id="stop130"
         offset="0"
         style="stop-opacity:1;stop-color:#b8b8b8" /><stop
         id="stop132"
         offset="1"
         style="stop-opacity:1;stop-color:#7f7f7f" /></radialGradient></defs><g
     transform="matrix(1.3333333,0,0,-1.3333333,0,793.70667)"
     id="g10"><g
       id="g12"><g
         clip-path="url(#clipPath18)"
         id="g14"><g
           transform="translate(372.8105,307.2701)"
           id="g20"><path
             id="path22"
             style="fill:#646464;fill-opacity:1;fill-rule:nonzero;stroke:none"
             d="m 0,0 c 0,-7.398 -1.735,-13.539 -5.225,-18.421 -3.888,-5.528 -9.279,-8.373 -16.17,-8.53 -5.195,-0.166 -10.546,1.461 -16.053,4.873 v -31.589 l -8.909,3.177 v 70.121 c 1.461,1.793 3.343,3.333 5.624,4.64 5.302,3.089 11.745,4.677 19.329,4.755 l 0.126,-0.126 c 6.93,0.087 12.271,-2.758 16.024,-8.529 C -1.755,15.078 0,8.295 0,0 m -10.244,0.604 c 0,14.562 -4.152,22.039 -12.457,22.448 -3.304,0.156 -6.53,-0.37 -9.669,-1.589 -2.505,-0.897 -4.192,-1.784 -5.078,-2.681 v -34.758 c 5.312,-3.334 10.029,-4.883 14.142,-4.639 8.704,0.574 13.062,7.641 13.062,21.219" /></g><g
           transform="translate(427.2578,286.5381)"
           id="g24"><path
             id="path26"
             style="fill:#646464;fill-opacity:1;fill-rule:nonzero;stroke:none"
             d="m 0,0 c 0,-9.924 -0.994,-16.795 -2.982,-20.615 -1.998,-3.821 -5.799,-6.871 -11.414,-9.143 -4.552,-1.793 -9.475,-2.769 -14.757,-2.933 l -1.472,5.613 c 5.371,0.73 9.152,1.463 11.346,2.193 4.318,1.463 7.281,3.703 8.908,6.707 1.307,2.446 1.949,7.115 1.949,14.026 v 2.32 c -6.092,-2.77 -12.475,-4.143 -19.152,-4.143 -4.387,0 -8.256,1.373 -11.59,4.143 C -42.906,1.18 -44.777,5 -44.777,9.629 v 37.079 l 8.908,3.05 V 12.437 c 0,-3.986 1.287,-7.056 3.859,-9.21 2.574,-2.155 5.907,-3.188 9.991,-3.11 4.084,0.088 8.46,1.666 13.111,4.756 V 48.414 H 0 Z" /></g><g
           transform="translate(462.0352,280.8057)"
           id="g28"><path
             id="path30"
             style="fill:#646464;fill-opacity:1;fill-rule:nonzero;stroke:none"
             d="m 0,0 c -1.062,-0.088 -2.037,-0.125 -2.934,-0.125 -5.039,0 -8.966,1.197 -11.774,3.605 -2.798,2.409 -4.2,5.731 -4.2,9.971 v 35.091 h -6.103 v 5.604 h 6.103 V 69.03 l 8.898,3.168 V 54.146 H 0 V 48.542 H -10.01 V 13.695 c 0,-3.343 0.897,-5.711 2.69,-7.095 C -5.779,5.459 -3.333,4.807 0,4.641 Z" /></g><g
           transform="translate(515.9766,281.5381)"
           id="g32"><path
             id="path34"
             style="fill:#646464;fill-opacity:1;fill-rule:nonzero;stroke:none"
             d="m 0,0 h -8.909 v 34.387 c 0,3.499 -0.82,6.511 -2.446,9.026 -1.882,2.846 -4.495,4.269 -7.847,4.269 -4.084,0 -9.193,-2.154 -15.323,-6.462 V 0 h -8.909 v 82.197 l 8.909,2.806 V 47.565 c 5.693,4.143 11.912,6.219 18.666,6.219 4.717,0 8.539,-1.589 11.463,-4.757 C -1.463,45.86 0,41.912 0,37.194 Z" /></g><g
           transform="translate(573.084,309.2193)"
           id="g36"><path
             id="path38"
             style="fill:#646464;fill-opacity:1;fill-rule:nonzero;stroke:none"
             d="m 0,0 c 0,-7.964 -2.037,-14.591 -6.102,-19.884 -4.473,-5.926 -10.653,-8.899 -18.539,-8.899 -7.816,0 -13.908,2.973 -18.304,8.899 -3.987,5.293 -5.975,11.92 -5.975,19.884 0,7.485 2.154,13.782 6.462,18.909 4.552,5.44 10.536,8.168 17.935,8.168 7.398,0 13.421,-2.728 18.061,-8.168 C -2.154,13.782 0,7.485 0,0 m -9.757,0.059 c 0,5.594 -1.061,10.214 -3.177,13.87 -2.515,4.454 -6.423,6.803 -11.707,7.047 -9.766,-0.566 -14.64,-7.564 -14.64,-20.976 0,-6.15 1.013,-11.287 3.06,-15.41 2.614,-5.254 6.532,-7.847 11.756,-7.759 9.806,0.078 14.708,7.818 14.708,23.228" /></g><g
           transform="translate(624.1582,281.5381)"
           id="g40"><path
             id="path42"
             style="fill:#646464;fill-opacity:1;fill-rule:nonzero;stroke:none"
             d="m 0,0 h -8.908 v 36.336 c 0,3.987 -1.199,7.096 -3.596,9.338 -2.398,2.233 -5.596,3.315 -9.582,3.227 -4.23,-0.078 -8.256,-1.462 -12.076,-4.143 V 0 h -8.91 v 45.86 c 5.127,3.732 9.845,6.17 14.154,7.309 4.064,1.063 7.65,1.589 10.74,1.589 2.116,0 4.104,-0.204 5.975,-0.614 3.5,-0.809 6.346,-2.31 8.539,-4.513 C -1.217,47.195 0,44.271 0,40.849 Z" /></g></g></g><g
       id="g44"><g
         id="g46"><g
           id="g52"><g
             id="g54"><path
               id="path62"
               style="fill:url(#linearGradient60);stroke:none"
               d="m 238.463,363.406 c -4.585,-0.022 -8.961,-0.413 -12.812,-1.094 v 0 c -11.347,-2.005 -13.407,-6.2 -13.407,-13.937 v 0 -10.219 h 26.812 v -3.406 h -26.812 -10.063 c -7.792,0 -14.615,-4.684 -16.749,-13.594 v 0 c -2.462,-10.213 -2.572,-16.586 0,-27.251 v 0 c 1.906,-7.937 6.458,-13.594 14.249,-13.594 v 0 h 9.22 v 12.25 c 0,8.851 7.657,16.657 16.75,16.657 v 0 h 26.781 c 7.455,0 13.405,6.138 13.405,13.626 v 0 25.531 c 0,7.265 -6.129,12.724 -13.405,13.937 v 0 c -4.472,0.745 -9.107,1.095 -13.568,1.095 v 0 c -0.134,0 -0.267,-10e-4 -0.401,-10e-4 m -19.532,-13.344 c 0,2.826 2.253,5.125 5.032,5.125 v 0 c 2.769,0 5.031,-2.299 5.031,-5.125 v 0 c 0,-2.817 -2.262,-5.094 -5.031,-5.094 v 0 c -2.779,0 -5.032,2.277 -5.032,5.094" /></g></g></g></g><g
       id="g64"><g
         id="g66"><g
           id="g72"><g
             id="g74"><path
               id="path82"
               style="fill:url(#linearGradient80);stroke:none"
               d="m 269.182,334.75 v -11.906 c 0,-9.232 -7.827,-17.001 -16.75,-17.001 v 0 h -26.781 c -7.336,0 -13.407,-6.278 -13.407,-13.626 v 0 -25.531 c 0,-7.265 6.318,-11.541 13.407,-13.625 v 0 c 8.487,-2.496 16.625,-2.946 26.781,0 v 0 c 6.75,1.956 13.405,5.889 13.405,13.625 v 0 10.22 h -26.781 v 3.405 h 26.781 13.407 c 7.793,0 10.696,5.436 13.406,13.594 v 0 c 2.8,8.4 2.681,16.476 0,27.251 v 0 c -1.926,7.756 -5.603,13.594 -13.406,13.594 v 0 z m -20.094,-69.751 c 0,2.817 2.261,5.094 5.031,5.094 v 0 c 2.78,0 5.031,-2.277 5.031,-5.094 v 0 c 0,-2.826 -2.251,-5.125 -5.031,-5.125 v 0 c -2.77,0 -5.031,2.299 -5.031,5.125" /></g></g></g></g><g
       id="g84"><g
         clip-path="url(#clipPath90)"
         id="g86"><g
           transform="translate(648.1543,342.8941)"
           id="g92"><path
             id="path94"
             style="fill:#646464;fill-opacity:1;fill-rule:nonzero;stroke:none"
             d="M 0,0 H 1.334 V 8.947 L 4.23,10e-4 H 5.717 L 8.734,8.917 V 0 h 1.457 V 10.964 H 8.266 L 4.967,1.571 2.154,10.964 H 0 V 0 m -6.646,0 h 1.562 v 9.796 h 3.699 v 1.168 h -8.963 V 9.796 h 3.702 z" /></g><g
           id="g96"><g
             id="g98" /><g
             id="g152"><g
               style="opacity:0.44381702"
               id="g150"
               clip-path="url(#clipPath102)"><g
                 id="g148"><g
                   id="g146"
                   clip-path="url(#clipPath106)"><g
                     id="g144"><g
                       id="g136" /><g
                       id="g142"
                       mask="url(#mask118)"><g
                         id="g140"><path
                           id="path138"
                           style="fill:url(#radialGradient134);stroke:none"
                           d="m 275.292,235.706 c 0,-3.848 -16.087,-6.967 -35.931,-6.967 -19.844,0 -35.931,3.119 -35.931,6.967 0,3.848 16.087,6.967 35.931,6.967 19.844,0 35.931,-3.119 35.931,-6.967" /></g></g></g></g></g></g></g></g></g></g></g></svg>